<?xml version="1.0" standalone="no"?>
<!DOCTYPE svg PUBLIC "-//W3C//DTD SVG 20010904//EN"
 "http://www.w3.org/TR/2001/REC-SVG-20010904/DTD/svg10.dtd">
<svg version="1.0" xmlns="http://www.w3.org/2000/svg"
 width="512.000000pt" height="512.000000pt" viewBox="0 0 512.000000 512.000000"
 preserveAspectRatio="xMidYMid meet">

<g transform="translate(0.000000,512.000000) scale(0.100000,-0.100000)"
fill="#000000" stroke="none">
<path d="M2650 3835 c-8 -2 -49 -9 -90 -15 -173 -28 -400 -125 -545 -233 -146
-108 -301 -290 -381 -449 l-24 -48 -165 0 -165 0 0 -210 0 -210 109 0 110 0
-1 -110 0 -110 -109 0 -109 0 0 -210 0 -210 165 0 165 0 24 -48 c47 -93 149
-234 225 -311 327 -334 793 -463 1245 -346 80 21 345 125 368 144 6 5 -152
374 -166 388 -2 2 -56 -18 -119 -46 -199 -87 -240 -96 -412 -96 -180 0 -236
13 -380 85 -102 51 -225 144 -264 199 l-22 31 330 0 331 0 0 210 0 210 -422 2
-423 3 0 105 0 105 423 3 422 2 0 210 0 210 -331 0 -330 0 22 31 c63 89 286
229 424 265 33 9 114 18 181 21 159 7 248 -11 429 -87 76 -33 143 -56 146 -52
16 16 168 377 161 383 -4 3 -66 31 -138 62 -214 91 -382 128 -572 126 -53 -1
-104 -3 -112 -4z"/>
</g>
</svg>
