<svg version="1.1" id="Layer_1" xmlns="http://www.w3.org/2000/svg" xmlns:xlink="http://www.w3.org/1999/xlink" x="0px" y="0px"
	 width="100%" viewBox="0 0 512 512" enable-background="new 0 0 512 512" xml:space="preserve">
<path fill="#000000" opacity="1.000000" stroke="none" 
	d="
M226.000000,513.000000 
	C151.034027,513.000000 76.068054,513.000000 1.051042,513.000000 
	C1.051042,342.444794 1.051042,171.889603 1.051042,1.000000 
	C75.354431,1.000000 149.709366,1.000000 224.858292,1.340193 
	C224.825912,2.131474 224.048981,2.800671 223.165741,3.000932 
	C209.945633,5.998380 196.600983,8.517646 183.509338,11.992248 
	C168.051331,16.094889 153.706741,23.019726 139.662735,30.674616 
	C120.973389,40.861519 104.041718,53.400219 88.695000,68.020737 
	C81.562881,74.815369 74.671585,82.064034 68.826523,89.961967 
	C59.703423,102.289230 50.923672,114.968826 43.171406,128.187057 
	C33.854263,144.073547 27.221222,161.300247 22.506767,179.127274 
	C19.822392,189.277847 18.038544,199.666580 15.506166,210.179321 
	C14.108847,219.525452 12.169569,228.642044 12.187035,237.754883 
	C12.221899,255.945145 12.282650,274.251495 14.316781,292.286133 
	C16.036972,307.537354 19.862112,322.666779 24.005709,337.500946 
	C29.678061,357.808044 39.038322,376.595917 49.860420,394.725647 
	C65.005562,420.097595 84.169228,441.969543 107.066101,460.381927 
	C124.092125,474.073303 142.685501,485.503571 162.967911,494.060638 
	C182.553177,502.323578 202.705521,508.295288 223.796890,511.077881 
	C224.601776,511.184082 225.268753,512.335632 226.000000,513.000000 
z"/>
<path fill="#000000" opacity="1.000000" stroke="none" 
	d="
M289.000000,1.000000 
	C363.632782,1.000000 438.265594,1.000000 512.949219,1.000000 
	C512.949219,171.555359 512.949219,342.110748 512.949219,513.000000 
	C438.312225,513.000000 363.623962,513.000000 288.250275,512.608521 
	C288.240448,511.820221 288.885223,511.145538 289.596069,511.066742 
	C311.939301,508.590240 333.160217,502.023804 353.626801,493.027496 
	C379.767975,481.536774 403.124725,465.587280 423.452301,445.685242 
	C434.805023,434.570190 445.447632,422.410156 454.615723,409.451416 
	C472.464386,384.223175 485.549866,356.534180 493.362823,326.419983 
	C497.979706,308.624756 501.627625,290.667450 501.816345,272.330536 
	C501.996521,254.821747 500.849884,237.287125 499.880585,219.786331 
	C499.599426,214.709900 497.921783,209.710831 496.867065,204.288239 
	C495.234161,196.888260 493.618500,189.876343 491.834473,182.507675 
	C489.142670,174.077179 486.619232,166.003448 484.055786,157.543762 
	C482.331482,152.831894 480.941376,148.361008 478.896606,144.212814 
	C475.505066,137.332443 471.692474,130.659592 468.018677,123.534843 
	C456.803894,102.970573 442.943726,84.844345 425.989990,68.682899 
	C422.572906,65.541260 419.295715,62.716812 415.896973,59.574524 
	C409.548431,54.482662 403.321411,49.708645 396.950439,44.610466 
	C382.196899,36.244167 367.587372,28.202024 352.631531,20.010332 
	C351.384796,19.564472 350.453430,19.338974 349.588470,18.961432 
	C330.783142,10.752960 311.140717,5.650109 290.828491,2.959167 
	C290.144470,2.868552 289.606201,1.677899 289.000000,1.000000 
z"/>
<path fill="#E88202" opacity="1.000000" stroke="none" 
	d="
M496.884277,204.676315 
	C497.921783,209.710831 499.599426,214.709900 499.880585,219.786331 
	C500.849884,237.287125 501.996521,254.821747 501.816345,272.330536 
	C501.627625,290.667450 497.979706,308.624756 493.362823,326.419983 
	C485.549866,356.534180 472.464386,384.223175 454.615723,409.451416 
	C445.447632,422.410156 434.805023,434.570190 423.452301,445.685242 
	C403.124725,465.587280 379.767975,481.536774 353.626801,493.027496 
	C333.160217,502.023804 311.939301,508.590240 289.596069,511.066742 
	C288.885223,511.145538 288.240448,511.820221 287.782410,512.608521 
	C267.645782,513.000000 247.291550,513.000000 226.468658,513.000000 
	C225.268753,512.335632 224.601776,511.184082 223.796890,511.077881 
	C202.705521,508.295288 182.553177,502.323578 162.967911,494.060638 
	C142.685501,485.503571 124.092125,474.073303 107.066101,460.381927 
	C84.169228,441.969543 65.005562,420.097595 49.860420,394.725647 
	C39.038322,376.595917 29.678061,357.808044 24.005709,337.500946 
	C19.862112,322.666779 16.036972,307.537354 14.316781,292.286133 
	C12.282650,274.251495 12.221899,255.945145 12.187035,237.754883 
	C12.169569,228.642044 14.108847,219.525452 15.563396,210.638458 
	C15.847414,214.263046 15.731188,217.659760 15.420435,221.391586 
	C14.945034,229.386658 14.664160,237.046616 14.350999,245.134705 
	C14.612859,250.732971 14.907005,255.903107 15.173451,261.495911 
	C16.844694,273.392975 17.548931,285.129669 20.487671,296.277252 
	C24.394562,311.097290 30.042963,325.458221 34.993332,340.381226 
	C42.970451,354.839172 50.897396,368.932281 58.992283,383.329651 
	C64.087242,389.708862 69.014252,395.783813 74.077225,402.178345 
	C77.005920,405.380981 79.798653,408.264038 82.711258,411.474030 
	C93.772362,421.376587 104.377731,431.377960 115.778221,440.371399 
	C122.847015,445.947662 131.122589,449.994202 139.075134,455.019348 
	C149.841690,460.212341 160.389572,465.113342 171.218689,470.241241 
	C179.988739,473.038177 188.477585,475.608246 197.270630,478.392273 
	C223.122131,484.835297 248.923859,487.320221 275.245575,485.215576 
	C294.264801,483.694885 312.849823,480.377289 330.930054,474.460602 
	C373.326843,460.586334 409.555908,437.216522 439.023102,403.561523 
	C456.838318,383.214386 471.112213,360.689545 481.303131,335.601318 
	C490.251770,313.571411 496.232300,290.829590 498.153259,267.071136 
	C499.397400,251.683319 501.165680,236.303299 498.040466,220.499008 
	C497.716492,214.931030 497.300385,209.803680 496.884277,204.676315 
z"/>
<path fill="#FEEB98" opacity="1.000000" stroke="none" 
	d="
M15.614962,221.056473 
	C15.731188,217.659760 15.847414,214.263046 15.906411,210.407196 
	C18.038544,199.666580 19.822392,189.277847 22.506767,179.127274 
	C27.221222,161.300247 33.854263,144.073547 43.171406,128.187057 
	C50.923672,114.968826 59.703423,102.289230 68.826523,89.961967 
	C74.671585,82.064034 81.562881,74.815369 88.695000,68.020737 
	C104.041718,53.400219 120.973389,40.861519 139.662735,30.674616 
	C153.706741,23.019726 168.051331,16.094889 183.509338,11.992248 
	C196.600983,8.517646 209.945633,5.998380 223.165741,3.000932 
	C224.048981,2.800671 224.825912,2.131474 225.326141,1.340193 
	C241.020889,1.000000 257.041779,1.000000 273.476257,1.339546 
	C271.500610,4.549611 269.111359,7.420130 266.110413,11.025538 
	C294.141449,12.929470 320.868652,17.455236 346.006317,28.492010 
	C337.293182,37.312527 328.734589,45.830326 320.268768,54.439365 
	C317.395111,57.361633 314.755585,60.514118 311.587067,63.521912 
	C280.065643,54.787144 248.682785,53.588768 217.148865,59.621597 
	C232.962021,43.534687 248.641449,27.748884 265.007050,11.272264 
	C262.378296,11.151973 260.774292,10.901303 259.202698,11.034250 
	C244.484467,12.279305 229.630295,12.708365 215.083405,15.043033 
	C166.631058,22.819258 124.948364,44.674553 89.470474,78.259216 
	C61.424156,104.808876 40.698994,136.464142 28.425526,173.088043 
	C23.231005,188.588455 20.687790,204.977386 16.608093,220.981995 
	C16.056103,221.019836 15.835532,221.038147 15.614962,221.056473 
z"/>
<path fill="#FFF5C9" opacity="1.000000" stroke="none" 
	d="
M346.197174,28.225016 
	C320.868652,17.455236 294.141449,12.929470 266.110413,11.025538 
	C269.111359,7.420130 271.500610,4.549611 273.944946,1.339546 
	C278.689240,1.000000 283.378510,1.000000 288.533875,1.000000 
	C289.606201,1.677899 290.144470,2.868552 290.828491,2.959167 
	C311.140717,5.650109 330.783142,10.752960 349.588470,18.961432 
	C350.453430,19.338974 351.384796,19.564472 352.634521,20.362076 
	C351.325684,23.290552 349.667572,25.717735 347.706238,28.138489 
	C347.001068,28.163044 346.599121,28.194031 346.197174,28.225016 
z"/>
<path fill="#FEEB99" opacity="1.000000" stroke="none" 
	d="
M468.057251,123.899338 
	C471.692474,130.659592 475.505066,137.332443 478.896606,144.212814 
	C480.941376,148.361008 482.331482,152.831894 483.703857,157.588165 
	C482.503601,158.342377 481.615234,158.666229 480.501038,158.753326 
	C475.290558,148.527435 471.344208,137.957397 464.099731,128.428146 
	C456.901428,135.658813 450.276520,142.421799 443.525085,149.056061 
	C439.272247,153.235031 434.829956,157.221252 430.225281,160.999146 
	C428.996216,159.172867 428.079285,157.594910 427.020172,156.119019 
	C424.350708,152.399139 421.617157,148.725220 418.934021,145.059433 
	C418.958710,145.085999 418.900177,145.128876 418.873840,144.789429 
	C418.177643,143.937790 417.507782,143.425598 416.612640,142.765930 
	C415.901794,142.108536 415.416168,141.598587 414.828918,140.759003 
	C408.493134,132.629333 402.259033,124.829292 395.971680,116.756836 
	C395.612885,116.304581 395.307312,116.124748 394.995422,115.975143 
	C394.989166,116.005379 395.050781,116.009338 394.974915,115.691010 
	C394.598602,115.059395 394.298126,114.746117 394.025970,114.336479 
	C394.054291,114.240112 393.775848,113.997025 393.516296,113.744949 
	C391.440765,111.650452 389.624756,109.808029 387.879150,107.625000 
	C398.627350,96.522865 409.305145,85.761353 420.325500,75.042496 
	C430.936371,86.319252 441.450317,97.342194 451.368835,108.877113 
	C456.280304,114.588997 460.095581,121.243454 464.712402,127.912910 
	C465.994080,126.374992 467.025665,125.137169 468.057251,123.899338 
z"/>
<path fill="#FEEB99" opacity="1.000000" stroke="none" 
	d="
M496.867065,204.288239 
	C497.300385,209.803680 497.716492,214.931030 497.765808,220.236877 
	C495.057037,208.996567 492.715027,197.577789 490.100800,184.831741 
	C487.347443,187.455551 485.911957,188.786240 484.517334,190.158463 
	C473.717834,200.784058 462.926208,211.417694 451.843140,221.783951 
	C449.556458,213.215912 447.558777,204.912781 445.503448,196.370071 
	C443.613098,197.123245 442.423340,197.597275 441.084656,197.711441 
	C436.929199,186.244370 432.922699,175.137146 429.284271,163.914764 
	C432.059753,167.569855 434.882538,171.143707 436.779266,175.155380 
	C439.786133,181.515182 442.173676,188.167816 444.823242,194.696548 
	C445.418457,195.134247 446.013702,195.571945 446.608948,196.009644 
	C447.628082,194.286011 448.341980,192.256241 449.714935,190.887512 
	C459.916748,180.717148 470.249420,170.678070 480.752045,160.934265 
	C483.523895,168.285568 486.129150,175.284622 488.621613,182.323624 
	C489.503876,184.815247 490.408325,185.587112 492.002808,182.864426 
	C493.618500,189.876343 495.234161,196.888260 496.867065,204.288239 
z"/>
<path fill="#FFF5C7" opacity="1.000000" stroke="none" 
	d="
M468.018677,123.534851 
	C467.025665,125.137169 465.994080,126.374992 464.712402,127.912910 
	C460.095581,121.243454 456.280304,114.588997 451.368835,108.877113 
	C441.450317,97.342194 430.936371,86.319252 420.330872,74.710983 
	C419.948334,73.897308 419.902985,73.457802 420.204865,72.985947 
	C422.411346,71.635765 424.270599,70.317924 426.129822,69.000092 
	C442.943726,84.844345 456.803894,102.970573 468.018677,123.534851 
z"/>
<path fill="#FEEB96" opacity="1.000000" stroke="none" 
	d="
M348.009460,28.144918 
	C349.667572,25.717735 351.325684,23.290552 352.980835,20.511625 
	C367.587372,28.202024 382.196899,36.244167 396.609161,44.665691 
	C394.573212,46.694881 392.734528,48.344688 390.606659,49.994232 
	C389.930725,49.981991 389.544006,49.970013 388.826233,49.844513 
	C385.252075,47.771538 382.101013,45.635609 378.748505,43.885605 
	C368.543915,38.558762 358.261536,33.380825 348.009460,28.144918 
z"/>
<path fill="#FFF5C9" opacity="1.000000" stroke="none" 
	d="
M390.895844,49.994499 
	C392.734528,48.344688 394.573212,46.694881 396.753174,44.989849 
	C403.321411,49.708645 409.548431,54.482662 415.614136,59.746948 
	C413.964630,62.060684 412.476501,63.884155 410.657043,65.722031 
	C409.883453,65.744225 409.441162,65.752014 408.947815,65.437668 
	C408.101318,64.314743 407.367676,63.438873 406.500366,62.725491 
	C401.315918,58.461056 396.100739,54.234055 390.895844,49.994499 
z"/>
<path fill="#FEEB99" opacity="1.000000" stroke="none" 
	d="
M410.988373,65.707634 
	C412.476501,63.884155 413.964630,62.060684 415.735657,60.064789 
	C419.295715,62.716812 422.572906,65.541260 425.989990,68.682892 
	C424.270599,70.317924 422.411346,71.635765 419.877014,72.940430 
	C416.464081,70.520721 413.726227,68.114182 410.988373,65.707634 
z"/>
<path fill="#FFF4C4" opacity="1.000000" stroke="none" 
	d="
M491.834473,182.507675 
	C490.408325,185.587112 489.503876,184.815247 488.621613,182.323624 
	C486.129150,175.284622 483.523895,168.285568 480.813446,160.671951 
	C480.684814,159.712128 480.705841,159.351105 480.726837,158.990082 
	C481.615234,158.666229 482.503601,158.342377 483.743896,157.974121 
	C486.619232,166.003448 489.142670,174.077179 491.834473,182.507675 
z"/>
<path fill="#FDD835" opacity="1.000000" stroke="none" 
	d="
M452.132172,222.048859 
	C462.926208,211.417694 473.717834,200.784058 484.517334,190.158463 
	C485.911957,188.786240 487.347443,187.455551 490.100800,184.831741 
	C492.715027,197.577789 495.057037,208.996567 497.673706,220.677490 
	C501.165680,236.303299 499.397400,251.683319 498.153259,267.071136 
	C496.232300,290.829590 490.251770,313.571411 481.303131,335.601318 
	C471.112213,360.689545 456.838318,383.214386 439.023102,403.561523 
	C409.555908,437.216522 373.326843,460.586334 330.930054,474.460602 
	C312.849823,480.377289 294.264801,483.694885 275.245575,485.215576 
	C248.923859,487.320221 223.122131,484.835297 197.435760,478.090576 
	C198.665817,476.137787 200.015244,474.681274 201.407257,473.266663 
	C211.617493,462.890747 221.836258,452.523224 232.401443,442.065796 
	C233.453140,441.816742 234.155731,441.654938 235.276520,441.640137 
	C256.412781,445.245758 277.093353,444.664276 297.699554,440.959015 
	C333.314636,434.554840 364.622162,419.158478 391.413116,394.910034 
	C411.914185,376.354584 427.932678,354.411133 438.621246,328.793732 
	C452.571747,295.358276 457.638580,260.783356 451.569275,224.489594 
	C451.806030,223.442398 451.969086,222.745636 452.132172,222.048859 
z"/>
<path fill="#FDD835" opacity="1.000000" stroke="none" 
	d="
M16.939512,220.962463 
	C20.687790,204.977386 23.231005,188.588455 28.425526,173.088043 
	C40.698994,136.464142 61.424156,104.808876 89.470474,78.259216 
	C124.948364,44.674553 166.631058,22.819258 215.083405,15.043033 
	C229.630295,12.708365 244.484467,12.279305 259.202698,11.034250 
	C260.774292,10.901303 262.378296,11.151973 265.007050,11.272264 
	C248.641449,27.748884 232.962021,43.534687 216.776611,59.733360 
	C206.594681,63.127354 196.670670,65.482239 187.286331,69.199524 
	C149.516678,84.160675 119.642624,108.918968 97.345367,142.899536 
	C84.598633,162.325317 76.210869,183.524109 70.609879,206.176849 
	C51.942169,224.566849 33.571663,242.820053 15.201154,261.073242 
	C14.907005,255.903107 14.612859,250.732971 14.520176,244.816742 
	C15.460931,236.367905 16.200222,228.665192 16.939512,220.962463 
z"/>
<path fill="#FEEC99" opacity="1.000000" stroke="none" 
	d="
M15.173454,261.495911 
	C33.571663,242.820053 51.942169,224.566849 70.615891,206.579681 
	C69.613937,218.364441 67.774170,229.853012 67.122429,241.408585 
	C66.000587,261.299133 69.206505,280.771790 74.278877,300.200623 
	C61.019394,313.659821 47.981274,326.838135 34.943153,340.016418 
	C30.042963,325.458221 24.394562,311.097290 20.487671,296.277252 
	C17.548931,285.129669 16.844694,273.392975 15.173454,261.495911 
z"/>
<path fill="#FEEB99" opacity="1.000000" stroke="none" 
	d="
M138.856461,454.727417 
	C131.122589,449.994202 122.847015,445.947662 115.778221,440.371399 
	C104.377731,431.377960 93.772362,421.376587 83.047577,411.322815 
	C94.853020,399.269012 106.442017,387.693390 118.326820,376.252625 
	C120.741714,378.467010 122.860794,380.546570 125.008087,382.734528 
	C125.036293,382.842926 125.443123,382.998169 125.670441,383.227173 
	C126.270050,383.655304 126.642342,383.854431 127.010956,384.020264 
	C127.007294,383.986938 126.940819,383.995422 127.024651,384.252869 
	C127.410004,384.696228 127.711525,384.882141 128.013367,385.027954 
	C128.013702,384.987823 127.933563,384.984467 128.033401,385.240723 
	C128.424530,385.712433 128.715820,385.927856 129.147522,386.431030 
	C130.859299,388.141754 132.430679,389.564789 133.863556,391.096802 
	C133.841736,391.464996 133.958405,391.724152 134.043732,391.993042 
	C134.012405,392.002777 134.007416,391.937347 134.205338,392.190186 
	C135.009598,392.619537 135.615952,392.796112 136.399796,393.022766 
	C136.811157,393.188690 136.968887,393.370544 137.059753,394.004822 
	C138.732956,395.578552 140.396866,396.765900 142.027267,397.967712 
	C141.993759,397.982178 142.042923,397.928040 142.057404,398.279541 
	C142.955673,399.792236 143.621292,401.263062 144.758606,402.064545 
	C152.319595,407.392975 160.001022,412.550201 167.591553,417.837372 
	C168.859512,418.720581 169.875229,419.965942 170.882263,421.352295 
	C162.501999,429.983856 154.212204,438.273041 146.012817,446.650726 
	C143.499969,449.218292 141.234955,452.028381 138.856461,454.727417 
z"/>
<path fill="#FDD835" opacity="1.000000" stroke="none" 
	d="
M34.993332,340.381226 
	C47.981274,326.838135 61.019394,313.659821 74.442612,300.502533 
	C76.924751,306.442627 78.636040,312.535370 81.205215,318.241913 
	C85.540771,327.871796 90.419884,337.256989 94.725311,346.825592 
	C82.786819,358.338196 71.187668,369.764496 59.622425,381.224976 
	C59.188126,381.655304 59.082912,382.417755 58.824341,383.025421 
	C50.897396,368.932281 42.970451,354.839172 34.993332,340.381226 
z"/>
<path fill="#FDD836" opacity="1.000000" stroke="none" 
	d="
M139.075134,455.019348 
	C141.234955,452.028381 143.499969,449.218292 146.012817,446.650726 
	C154.212204,438.273041 162.501999,429.983856 171.198303,421.288452 
	C172.057297,420.813416 172.475021,420.710541 173.197495,420.812927 
	C183.814758,425.758514 194.127274,430.498779 204.877121,435.440063 
	C203.696930,436.681335 202.502960,437.975433 201.268387,439.229523 
	C191.162354,449.495361 181.048767,459.753723 170.937469,470.014374 
	C160.389572,465.113342 149.841690,460.212341 139.075134,455.019348 
z"/>
<path fill="#FEEB99" opacity="1.000000" stroke="none" 
	d="
M171.218689,470.241241 
	C181.048767,459.753723 191.162354,449.495361 201.268387,439.229523 
	C202.502960,437.975433 203.696930,436.681335 204.877121,435.440063 
	C194.127274,430.498779 183.814758,425.758514 173.285690,420.521240 
	C173.374893,419.041107 173.680679,418.057983 174.331421,417.149536 
	C186.141754,421.560394 197.607147,425.896545 209.008179,430.544006 
	C208.177063,432.068176 207.410278,433.281067 206.388168,434.897858 
	C208.871796,435.678955 211.018066,436.422821 213.202774,437.028046 
	C219.477631,438.766388 225.768021,440.448669 232.052307,442.153015 
	C221.836258,452.523224 211.617493,462.890747 201.407257,473.266663 
	C200.015244,474.681274 198.665817,476.137787 197.131546,477.876587 
	C188.477585,475.608246 179.988739,473.038177 171.218689,470.241241 
z"/>
<path fill="#FEEB98" opacity="1.000000" stroke="none" 
	d="
M58.992287,383.329651 
	C59.082912,382.417755 59.188126,381.655304 59.622425,381.224976 
	C71.187668,369.764496 82.786819,358.338196 95.017815,347.018982 
	C100.162834,353.387177 104.670258,359.642517 108.996735,366.191040 
	C97.190948,378.275726 85.566101,390.067261 73.941261,401.858795 
	C69.014252,395.783813 64.087242,389.708862 58.992287,383.329651 
z"/>
<path fill="#FDD836" opacity="1.000000" stroke="none" 
	d="
M74.077225,402.178345 
	C85.566101,390.067261 97.190948,378.275726 109.265862,366.380371 
	C112.487625,369.556976 115.259323,372.837372 118.031021,376.117798 
	C106.442017,387.693390 94.853020,399.269012 82.927704,410.995850 
	C79.798653,408.264038 77.005920,405.380981 74.077225,402.178345 
z"/>
<path fill="#F9CE5D" opacity="1.000000" stroke="none" 
	d="
M16.608093,220.981995 
	C16.200222,228.665192 15.460931,236.367905 14.552464,244.388611 
	C14.664160,237.046616 14.945034,229.386658 15.420435,221.391586 
	C15.835532,221.038147 16.056103,221.019836 16.608093,220.981995 
z"/>
<path fill="#E88203" opacity="1.000000" stroke="none" 
	d="
M118.326828,376.252625 
	C115.259323,372.837372 112.487625,369.556976 109.446808,366.087219 
	C104.670258,359.642517 100.162834,353.387177 95.362915,346.938477 
	C90.419884,337.256989 85.540771,327.871796 81.205215,318.241913 
	C78.636040,312.535370 76.924751,306.442627 74.663971,300.221619 
	C69.206505,280.771790 66.000587,261.299133 67.122429,241.408585 
	C67.774170,229.853012 69.613937,218.364441 70.913101,206.442871 
	C76.210869,183.524109 84.598633,162.325317 97.345367,142.899536 
	C119.642624,108.918968 149.516678,84.160675 187.286331,69.199524 
	C196.670670,65.482239 206.594681,63.127354 216.642883,60.034470 
	C248.682785,53.588768 280.065643,54.787144 311.868713,63.692642 
	C327.378754,70.620522 342.185089,77.338188 357.182495,84.330200 
	C363.881470,89.126389 370.389404,93.648232 377.086212,98.442459 
	C380.786316,101.798424 384.297546,104.882019 387.808777,107.965614 
	C389.624756,109.808029 391.440765,111.650452 393.086639,113.785522 
	C391.575104,113.521729 390.065033,113.199661 388.917572,112.373772 
	C371.193359,99.616898 351.942566,90.016785 330.975372,83.817696 
	C303.417999,75.670166 275.403656,73.770699 247.108215,78.323639 
	C224.097748,82.026207 202.319916,89.610527 182.095078,101.428589 
	C158.926178,114.966949 139.326477,132.436630 123.519112,154.124969 
	C104.410683,180.342499 92.924034,209.530792 88.677658,241.739868 
	C86.263672,260.050171 86.421555,278.250031 89.422325,296.361053 
	C94.369362,326.218658 105.618423,353.558655 123.507416,378.090698 
	C124.397507,379.311340 124.506950,381.101288 124.979881,382.626129 
	C122.860794,380.546570 120.741714,378.467010 118.326828,376.252625 
z"/>
<path fill="#FDD836" opacity="1.000000" stroke="none" 
	d="
M356.991425,84.055862 
	C342.185089,77.338188 327.378754,70.620522 312.290771,63.732128 
	C314.755585,60.514118 317.395111,57.361633 320.268768,54.439365 
	C328.734589,45.830326 337.293182,37.312527 346.006317,28.492010 
	C346.599121,28.194031 347.001068,28.163044 347.706238,28.138489 
	C358.261536,33.380825 368.543915,38.558762 378.748505,43.885605 
	C382.101013,45.635609 385.252075,47.771538 388.790771,50.201904 
	C387.852692,52.207275 386.737244,53.857525 385.366333,55.257576 
	C375.937958,64.886276 366.456085,74.462646 356.991425,84.055862 
z"/>
<path fill="#F39E09" opacity="1.000000" stroke="none" 
	d="
M209.072525,430.232697 
	C197.607147,425.896545 186.141754,421.560394 174.033951,416.964294 
	C164.262344,411.132935 155.133163,405.561554 146.007370,399.605347 
	C146.404083,397.784790 146.584015,396.245453 147.223099,394.928986 
	C155.270920,378.351288 163.082611,361.647919 171.606598,345.316956 
	C176.034988,336.832703 181.752151,329.021149 187.063385,321.239136 
	C187.801651,323.134766 188.369186,324.695068 188.924866,326.259552 
	C198.196884,352.364105 223.074310,365.657135 248.689087,367.284363 
	C248.865036,372.149567 248.941925,376.548920 248.757065,381.274048 
	C248.348312,385.233032 247.886429,388.895905 248.224121,392.483521 
	C248.343140,393.748230 250.349792,395.738892 251.612274,395.833893 
	C256.734741,396.219360 261.907074,395.873474 267.052795,396.044342 
	C270.157043,396.147430 271.168213,394.844574 271.034851,391.905243 
	C270.869263,388.256409 270.967804,384.595612 270.973267,380.487183 
	C270.967133,376.720245 270.940002,373.406128 270.946472,369.699219 
	C271.020966,368.519531 271.061890,367.732635 271.538330,366.975403 
	C293.828003,365.510010 311.465759,356.593109 322.183868,336.919342 
	C327.134338,327.832458 329.814056,317.815063 327.147705,306.754822 
	C328.756378,293.871521 329.267822,281.547119 322.932556,269.649567 
	C318.861725,260.824951 313.070312,253.579346 305.267303,248.608337 
	C295.192627,242.190140 284.478455,236.775772 274.024475,230.487091 
	C273.932892,227.656143 273.856506,225.267227 273.853333,222.596359 
	C274.023376,221.938416 274.120178,221.562408 274.530609,221.082214 
	C276.873383,219.617691 278.902527,218.257385 280.964722,217.329010 
	C280.702057,220.929611 282.016327,222.159637 285.305817,222.104507 
	C295.103546,221.940323 304.905762,222.047104 314.706238,222.047318 
	C329.370758,222.047668 329.370758,222.047409 329.158600,207.046753 
	C328.478821,199.536362 327.614471,192.370926 326.864746,184.862610 
	C328.050323,183.521210 328.981445,182.283066 330.215057,181.563385 
	C337.805389,177.135300 345.202759,172.259262 353.150848,168.584579 
	C373.608582,159.126205 394.320343,150.217194 414.930573,141.088638 
	C415.416168,141.598587 415.901794,142.108536 416.710388,143.085297 
	C417.655640,144.077698 418.277893,144.603302 418.900146,145.128876 
	C418.900177,145.128876 418.958710,145.085999 418.832062,145.422424 
	C422.123291,151.851044 425.541168,157.943237 428.956360,164.016449 
	C428.953674,163.997452 428.916199,164.029922 428.916199,164.029922 
	C432.922699,175.137146 436.929199,186.244370 441.069885,198.098785 
	C442.879974,208.541321 444.555878,218.236618 446.203033,228.353943 
	C445.812378,243.372849 446.593811,258.106445 444.868042,272.540253 
	C440.222107,311.397705 423.955017,345.399078 397.382568,373.923645 
	C354.631409,419.815613 301.516602,440.030670 238.519592,435.147400 
	C228.425797,433.452393 218.749161,431.842560 209.072525,430.232697 
z"/>
<path fill="#F6B647" opacity="1.000000" stroke="none" 
	d="
M414.828918,140.759003 
	C394.320343,150.217194 373.608582,159.126205 353.150848,168.584579 
	C345.202759,172.259262 337.805389,177.135300 330.215057,181.563385 
	C328.981445,182.283066 328.050323,183.521210 326.654968,184.812836 
	C326.330505,185.105927 325.908997,185.009201 325.927979,184.624786 
	C324.307648,180.472565 322.668335,176.704727 320.982849,172.587769 
	C318.347595,169.138474 315.758575,166.038269 313.167297,162.573181 
	C308.402618,154.690323 301.420044,150.212433 292.957062,147.254486 
	C287.653992,145.303162 282.436279,143.821365 277.385559,141.900497 
	C276.002136,141.374374 274.246552,139.590317 274.159149,138.283386 
	C273.795105,132.841263 274.001129,127.360916 274.000671,121.894592 
	C273.999664,110.878021 274.000366,110.878021 262.501221,111.026382 
	C250.848892,110.938004 250.848770,110.938004 251.152634,122.302681 
	C251.157059,122.467453 251.178070,122.631783 251.162964,123.228027 
	C251.408142,128.109131 251.641678,132.561493 251.970444,137.006790 
	C252.163498,139.617325 251.176468,140.630096 248.471207,141.234772 
	C241.256760,142.847321 234.160141,144.987030 226.770538,147.027527 
	C226.337723,147.426132 226.151077,147.714447 225.988312,148.004028 
	C226.012192,148.005295 226.000732,147.958878 225.624573,147.933685 
	C214.354126,151.875885 206.460129,159.505875 200.177307,168.907928 
	C198.601547,171.265991 198.005630,174.278809 196.979385,176.999359 
	C196.999359,177.007980 196.992737,176.964981 196.705902,177.025909 
	C196.185165,177.399872 195.951248,177.712891 195.500275,178.311218 
	C192.020172,188.586929 191.042252,198.757156 192.633942,209.455673 
	C192.580399,214.681610 192.361908,219.657562 193.034500,224.510025 
	C195.928879,245.391891 209.207962,258.100159 227.122009,267.260468 
	C227.119522,267.503693 227.158447,267.988617 226.856079,268.147064 
	C222.412643,273.449158 218.271576,278.592804 213.838654,283.824707 
	C213.350052,283.964172 213.153336,284.015350 212.591034,284.016357 
	C211.487259,283.979126 210.749054,283.992004 209.541992,283.989014 
	C202.373718,283.680817 195.669113,283.472809 188.976761,283.064148 
	C185.041672,282.823822 183.390213,284.315582 184.275803,288.271881 
	C184.489838,289.227997 184.672165,290.191254 184.628540,291.461884 
	C183.485046,301.046295 184.142960,310.164215 187.080490,319.361572 
	C186.995438,320.083008 186.941284,320.494354 186.887146,320.905701 
	C181.752151,329.021149 176.034988,336.832703 171.606598,345.316956 
	C163.082611,361.647919 155.270920,378.351288 147.223099,394.928986 
	C146.584015,396.245453 146.404083,397.784790 145.698914,399.505859 
	C144.272369,399.170105 143.157654,398.549072 142.042938,397.928040 
	C142.042923,397.928040 141.993759,397.982178 141.901474,397.659973 
	C140.222946,396.097992 138.636703,394.858215 137.050461,393.618408 
	C136.968887,393.370544 136.811157,393.188690 136.179199,392.783936 
	C135.189880,392.309113 134.598648,392.123230 134.007416,391.937347 
	C134.007416,391.937347 134.012405,392.002777 134.103989,391.738159 
	C134.131073,391.311615 134.066559,391.149689 134.002060,390.987793 
	C132.430679,389.564789 130.859299,388.141754 129.035767,386.180115 
	C128.500259,385.422455 128.216919,385.203461 127.933563,384.984467 
	C127.933563,384.984467 128.013702,384.987823 127.908432,384.782898 
	C127.515717,384.383789 127.228271,384.189606 126.940826,383.995422 
	C126.940819,383.995422 127.007294,383.986938 126.837601,383.737061 
	C126.259651,383.324219 125.851387,383.161194 125.443115,382.998169 
	C125.443123,382.998169 125.036293,382.842926 125.008087,382.734528 
	C124.506950,381.101288 124.397507,379.311340 123.507416,378.090698 
	C105.618423,353.558655 94.369362,326.218658 89.422325,296.361053 
	C86.421555,278.250031 86.263672,260.050171 88.677658,241.739868 
	C92.924034,209.530792 104.410683,180.342499 123.519112,154.124969 
	C139.326477,132.436630 158.926178,114.966949 182.095078,101.428589 
	C202.319916,89.610527 224.097748,82.026207 247.108215,78.323639 
	C275.403656,73.770699 303.417999,75.670166 330.975372,83.817696 
	C351.942566,90.016785 371.193359,99.616898 388.917572,112.373772 
	C390.065033,113.199661 391.575104,113.521729 393.346191,114.037598 
	C393.775848,113.997025 394.054291,114.240112 394.103210,114.661224 
	C394.451660,115.391342 394.751221,115.700340 395.050781,116.009338 
	C395.050781,116.009338 394.989166,116.005379 395.084167,116.222023 
	C395.461060,116.635529 395.742981,116.832390 396.024902,117.029251 
	C402.259033,124.829292 408.493134,132.629333 414.828918,140.759003 
z"/>
<path fill="#FDD836" opacity="1.000000" stroke="none" 
	d="
M480.501038,158.753326 
	C480.705841,159.351105 480.684814,159.712128 480.602386,160.335464 
	C470.249420,170.678070 459.916748,180.717148 449.714935,190.887512 
	C448.341980,192.256241 447.628082,194.286011 446.608948,196.009644 
	C446.013702,195.571945 445.418457,195.134247 444.823242,194.696548 
	C442.173676,188.167816 439.786133,181.515182 436.779266,175.155380 
	C434.882538,171.143707 432.059753,167.569855 429.284271,163.914764 
	C428.916199,164.029922 428.953674,163.997452 429.219116,163.824310 
	C429.813904,162.865433 430.143280,162.079681 430.472656,161.293945 
	C434.829956,157.221252 439.272247,153.235031 443.525085,149.056061 
	C450.276520,142.421799 456.901428,135.658813 464.099731,128.428146 
	C471.344208,137.957397 475.290558,148.527435 480.501038,158.753326 
z"/>
<path fill="#FDD837" opacity="1.000000" stroke="none" 
	d="
M387.879150,107.625000 
	C384.297546,104.882019 380.786316,101.798424 377.380005,98.259460 
	C387.989594,87.122650 398.494232,76.441223 408.998871,65.759796 
	C409.441162,65.752014 409.883453,65.744225 410.657043,65.722038 
	C413.726227,68.114182 416.464081,70.520721 419.529785,72.972778 
	C419.902985,73.457802 419.948334,73.897308 419.988342,74.668335 
	C409.305145,85.761353 398.627350,96.522865 387.879150,107.625000 
z"/>
<path fill="#FEF1BF" opacity="1.000000" stroke="none" 
	d="
M430.225281,160.999146 
	C430.143280,162.079681 429.813904,162.865433 429.221802,163.843323 
	C425.541168,157.943237 422.123291,151.851044 418.807373,145.395844 
	C421.617157,148.725220 424.350708,152.399139 427.020172,156.119019 
	C428.079285,157.594910 428.996216,159.172867 430.225281,160.999146 
z"/>
<path fill="#FEF1BF" opacity="1.000000" stroke="none" 
	d="
M418.873840,144.789429 
	C418.277893,144.603302 417.655640,144.077698 416.935638,143.232742 
	C417.507782,143.425598 418.177643,143.937790 418.873840,144.789429 
z"/>
<path fill="#E88203" opacity="1.000000" stroke="none" 
	d="
M395.971680,116.756836 
	C395.742981,116.832390 395.461060,116.635529 395.090424,116.191788 
	C395.307312,116.124748 395.612885,116.304581 395.971680,116.756836 
z"/>
<path fill="#E88203" opacity="1.000000" stroke="none" 
	d="
M394.974915,115.691010 
	C394.751221,115.700340 394.451660,115.391342 394.074890,114.757591 
	C394.298126,114.746117 394.598602,115.059395 394.974915,115.691010 
z"/>
<path fill="#FFF4C8" opacity="1.000000" stroke="none" 
	d="
M446.231812,227.931915 
	C444.555878,218.236618 442.879974,208.541321 441.218811,198.458649 
	C442.423340,197.597275 443.613098,197.123245 445.503448,196.370071 
	C447.558777,204.912781 449.556458,213.215912 451.843140,221.783951 
	C451.969086,222.745636 451.806030,223.442398 451.287140,224.588364 
	C449.364838,226.002335 447.798340,226.967117 446.231812,227.931915 
z"/>
<path fill="#FEEB99" opacity="1.000000" stroke="none" 
	d="
M408.947815,65.437660 
	C398.494232,76.441223 387.989594,87.122650 377.191162,97.987076 
	C370.389404,93.648232 363.881470,89.126389 357.182495,84.330200 
	C366.456085,74.462646 375.937958,64.886276 385.366333,55.257576 
	C386.737244,53.857525 387.852692,52.207275 389.121796,50.315422 
	C389.544006,49.970013 389.930725,49.981991 390.606659,49.994232 
	C396.100739,54.234055 401.315918,58.461056 406.500366,62.725491 
	C407.367676,63.438873 408.101318,64.314743 408.947815,65.437660 
z"/>
<path fill="#FEEB99" opacity="1.000000" stroke="none" 
	d="
M446.203064,228.353943 
	C447.798340,226.967117 449.364838,226.002335 451.213501,224.938782 
	C457.638580,260.783356 452.571747,295.358276 438.621246,328.793732 
	C427.932678,354.411133 411.914185,376.354584 391.413116,394.910034 
	C364.622162,419.158478 333.314636,434.554840 297.699554,440.959015 
	C277.093353,444.664276 256.412781,445.245758 235.369965,441.351746 
	C236.342407,439.021820 237.639587,437.127197 238.936768,435.232574 
	C301.516602,440.030670 354.631409,419.815613 397.382568,373.923645 
	C423.955017,345.399078 440.222107,311.397705 444.868042,272.540253 
	C446.593811,258.106445 445.812378,243.372849 446.203064,228.353943 
z"/>
<path fill="#FFF5C9" opacity="1.000000" stroke="none" 
	d="
M238.519592,435.147400 
	C237.639587,437.127197 236.342407,439.021820 234.951782,441.204773 
	C234.155731,441.654938 233.453140,441.816742 232.401428,442.065765 
	C225.768021,440.448669 219.477631,438.766388 213.202774,437.028046 
	C211.018066,436.422821 208.871796,435.678955 206.388168,434.897858 
	C207.410278,433.281067 208.177063,432.068176 209.008179,430.544006 
	C218.749161,431.842560 228.425797,433.452393 238.519592,435.147400 
z"/>
<path fill="#FEF3C4" opacity="1.000000" stroke="none" 
	d="
M142.057404,398.279510 
	C143.157654,398.549072 144.272369,399.170105 145.695526,399.890656 
	C155.133163,405.561554 164.262344,411.132935 173.688995,416.889587 
	C173.680679,418.057983 173.374893,419.041107 172.980927,420.315979 
	C172.475021,420.710541 172.057297,420.813416 171.323547,420.980103 
	C169.875229,419.965942 168.859512,418.720581 167.591553,417.837372 
	C160.001022,412.550201 152.319595,407.392975 144.758606,402.064545 
	C143.621292,401.263062 142.955673,399.792236 142.057404,398.279510 
z"/>
<path fill="#FEF3C4" opacity="1.000000" stroke="none" 
	d="
M137.059753,394.004822 
	C138.636703,394.858215 140.222946,396.097992 141.934982,397.645508 
	C140.396866,396.765900 138.732956,395.578552 137.059753,394.004822 
z"/>
<path fill="#FEF3C4" opacity="1.000000" stroke="none" 
	d="
M134.205338,392.190186 
	C134.598648,392.123230 135.189880,392.309113 136.001709,392.733826 
	C135.615952,392.796112 135.009598,392.619537 134.205338,392.190186 
z"/>
<path fill="#E88203" opacity="1.000000" stroke="none" 
	d="
M125.670441,383.227173 
	C125.851387,383.161194 126.259651,383.324219 126.841270,383.770386 
	C126.642342,383.854431 126.270050,383.655304 125.670441,383.227173 
z"/>
<path fill="#E88203" opacity="1.000000" stroke="none" 
	d="
M127.024658,384.252869 
	C127.228271,384.189606 127.515717,384.383789 127.908104,384.823029 
	C127.711525,384.882141 127.410004,384.696228 127.024658,384.252869 
z"/>
<path fill="#E88203" opacity="1.000000" stroke="none" 
	d="
M128.033401,385.240723 
	C128.216919,385.203461 128.500259,385.422455 128.895355,385.892365 
	C128.715820,385.927856 128.424530,385.712433 128.033401,385.240723 
z"/>
<path fill="#FEF3C4" opacity="1.000000" stroke="none" 
	d="
M133.863556,391.096802 
	C134.066559,391.149689 134.131073,391.311615 134.135315,391.728424 
	C133.958405,391.724152 133.841736,391.464996 133.863556,391.096802 
z"/>
<path fill="#FEE268" opacity="1.000000" stroke="none" 
	d="
M262.959869,111.048492 
	C274.000366,110.878021 273.999664,110.878021 274.000671,121.894592 
	C274.001129,127.360916 273.795105,132.841263 274.159149,138.283386 
	C274.246552,139.590317 276.002136,141.374374 277.385559,141.900497 
	C282.436279,143.821365 287.653992,145.303162 292.710938,147.526581 
	C283.233398,157.444901 273.853729,166.787018 264.608673,175.995056 
	C268.352966,178.776520 271.189178,180.883423 274.011963,183.457840 
	C274.054230,188.920090 274.109955,193.914810 274.118134,199.381592 
	C274.119385,206.964554 274.168152,214.075485 274.216980,221.186401 
	C274.120178,221.562408 274.023376,221.938416 273.541626,222.684998 
	C271.398163,224.728928 269.639618,226.402283 267.546387,228.113098 
	C266.629272,228.450760 265.924927,228.628571 265.482483,229.069321 
	C256.750702,237.767944 248.035370,246.483307 239.369644,255.247620 
	C238.717789,255.906906 238.463531,256.959381 237.797440,257.850342 
	C237.570435,257.871643 237.121094,257.791443 236.877350,257.551208 
	C232.740692,255.209381 228.847778,253.107819 225.109497,250.708008 
	C233.702469,241.905334 242.085815,233.345062 250.619537,224.937424 
	C252.643936,222.942963 253.411636,221.337479 250.991806,218.794342 
	C250.996353,210.187057 250.979492,202.074326 251.002563,193.500305 
	C251.042480,188.524384 251.042480,184.009750 251.042480,179.495117 
	C250.519958,179.241562 249.997437,178.988007 249.474915,178.734436 
	C247.516754,180.745041 244.587921,182.434937 243.796249,184.830978 
	C241.974869,190.343399 241.193115,196.199341 239.649872,201.975861 
	C237.681870,203.420151 235.964828,204.713684 234.439423,206.203430 
	C224.599869,215.812958 214.802216,225.465363 204.687271,234.947800 
	C197.338181,227.684677 194.289017,218.784470 192.878998,209.148865 
	C191.042252,198.757156 192.020172,188.586929 195.776581,178.214737 
	C196.510880,177.543625 196.751816,177.254303 196.992737,176.964981 
	C196.992737,176.964981 196.999359,177.007980 197.293518,176.878998 
	C207.058701,167.152954 216.529724,157.555923 226.000732,147.958893 
	C226.000732,147.958878 226.012192,148.005295 226.225800,147.892120 
	C226.631821,147.491699 226.824249,147.204453 227.016693,146.917206 
	C234.160141,144.987030 241.256760,142.847321 248.471207,141.234772 
	C251.176468,140.630096 252.163498,139.617325 251.970444,137.006790 
	C251.641678,132.561493 251.408142,128.109131 251.444122,123.103050 
	C255.489059,118.713730 259.224457,114.881111 262.959869,111.048492 
z"/>
<path fill="#FEEB99" opacity="1.000000" stroke="none" 
	d="
M238.024445,257.829071 
	C238.463531,256.959381 238.717789,255.906906 239.369644,255.247620 
	C248.035370,246.483307 256.750702,237.767944 265.482483,229.069321 
	C265.924927,228.628571 266.629272,228.450760 267.798462,228.342682 
	C270.270020,229.332932 272.154816,230.131027 274.039642,230.929138 
	C284.478455,236.775772 295.192627,242.190140 305.267303,248.608337 
	C313.070312,253.579346 318.861725,260.824951 322.649292,269.820557 
	C296.606476,296.104950 270.791046,321.869629 244.990265,347.648987 
	C243.937958,348.700439 243.023514,349.889862 241.623642,351.053772 
	C218.785156,347.529541 201.149704,337.099243 190.862274,315.786682 
	C190.609695,314.998077 190.393021,314.487488 190.452667,313.800995 
	C198.138199,303.772217 205.547394,293.919342 212.956604,284.066498 
	C213.153336,284.015350 213.350052,283.964172 214.293854,283.879517 
	C220.629395,283.846069 226.217865,283.846069 231.949661,283.846069 
	C233.260727,297.041504 234.994263,309.309906 249.190002,314.934631 
	C256.862579,317.399933 264.099854,318.359619 271.335266,313.787476 
	C276.445343,310.776093 279.030334,306.426910 279.945374,300.554016 
	C281.071808,290.509064 280.110260,281.496460 271.752045,274.518677 
	C263.935120,270.581818 256.323853,266.896851 248.431305,263.013611 
	C244.774811,261.153259 241.399643,259.491150 238.024445,257.829071 
z"/>
<path fill="#FDD836" opacity="1.000000" stroke="none" 
	d="
M242.044830,351.014984 
	C243.023514,349.889862 243.937958,348.700439 244.990265,347.648987 
	C270.791046,321.869629 296.606476,296.104950 322.702576,270.166626 
	C329.267822,281.547119 328.756378,293.871521 327.090759,307.126770 
	C326.221039,310.947174 325.379547,313.964844 324.179535,317.078186 
	C315.865631,324.941040 307.871643,332.669373 299.983521,340.504303 
	C298.136261,342.339111 296.647400,344.534790 294.717224,346.760315 
	C290.788910,348.092804 287.160126,349.311829 283.478912,350.343933 
	C279.431915,351.478546 273.461304,351.200684 271.743774,353.797119 
	C269.662018,356.944244 271.156036,362.456726 271.102844,366.945709 
	C271.061890,367.732635 271.020966,368.519531 270.645630,369.818848 
	C266.889984,373.842621 263.468781,377.354004 259.589142,380.913696 
	C255.760071,380.957458 252.389435,380.952881 249.018799,380.948273 
	C248.941925,376.548920 248.865036,372.149567 248.758789,366.843689 
	C248.750565,363.778534 248.602036,361.602051 248.826630,359.464783 
	C249.366608,354.326538 247.635391,351.160980 242.044830,351.014984 
z"/>
<path fill="#DC6905" opacity="1.000000" stroke="none" 
	d="
M241.623642,351.053772 
	C247.635391,351.160980 249.366608,354.326538 248.826630,359.464783 
	C248.602036,361.602051 248.750565,363.778534 248.659729,366.377869 
	C223.074310,365.657135 198.196884,352.364105 188.924866,326.259552 
	C188.369186,324.695068 187.801651,323.134766 187.063385,321.239136 
	C186.941284,320.494354 186.995438,320.083008 187.341858,319.185822 
	C188.722153,317.821564 189.810181,316.943146 190.898193,316.064697 
	C201.149704,337.099243 218.785156,347.529541 241.623642,351.053772 
z"/>
<path fill="#DC6905" opacity="1.000000" stroke="none" 
	d="
M324.538055,316.982544 
	C325.379547,313.964844 326.221039,310.947174 327.119476,307.557556 
	C329.814056,317.815063 327.134338,327.832458 322.183868,336.919342 
	C311.465759,356.593109 293.828003,365.510010 271.538300,366.975403 
	C271.156036,362.456726 269.662018,356.944244 271.743774,353.797119 
	C273.461304,351.200684 279.431915,351.478546 283.478912,350.343933 
	C287.160126,349.311829 290.788910,348.092804 295.079010,346.629883 
	C309.192535,340.332275 319.086792,330.841034 324.538055,316.982544 
z"/>
<path fill="#DB6704" opacity="1.000000" stroke="none" 
	d="
M328.974060,207.391708 
	C329.370758,222.047409 329.370758,222.047668 314.706238,222.047318 
	C304.905762,222.047104 295.103546,221.940323 285.305817,222.104507 
	C282.016327,222.159637 280.702057,220.929611 281.003265,217.109650 
	C281.008759,216.458374 281.074768,216.016281 281.361237,215.852905 
	C284.835999,213.049820 288.024292,210.410110 291.578735,207.648804 
	C292.957550,207.351425 293.970215,207.175659 295.443237,207.103943 
	C306.927032,207.269211 317.950562,207.330460 328.974060,207.391708 
z"/>
<path fill="#FEEC99" opacity="1.000000" stroke="none" 
	d="
M329.158600,207.046753 
	C317.950562,207.330460 306.927032,207.269211 295.496979,206.761047 
	C298.781677,203.326843 302.286865,200.064438 306.206238,197.414642 
	C312.632294,193.070160 319.327393,189.123596 325.908997,185.009216 
	C325.908997,185.009201 326.330505,185.105927 326.540314,185.155716 
	C327.614471,192.370926 328.478821,199.536362 329.158600,207.046753 
z"/>
<path fill="#DB6804" opacity="1.000000" stroke="none" 
	d="
M248.757065,381.274048 
	C252.389435,380.952881 255.760071,380.957458 260.043030,380.963684 
	C264.287628,380.956879 267.619934,380.948425 270.952240,380.939972 
	C270.967804,384.595612 270.869263,388.256409 271.034851,391.905243 
	C271.168213,394.844574 270.157043,396.147430 267.052795,396.044342 
	C261.907074,395.873474 256.734741,396.219360 251.612274,395.833893 
	C250.349792,395.738892 248.343140,393.748230 248.224121,392.483521 
	C247.886429,388.895905 248.348312,385.233032 248.757065,381.274048 
z"/>
<path fill="#F6B546" opacity="1.000000" stroke="none" 
	d="
M281.074768,216.016281 
	C281.074768,216.016281 281.008759,216.458374 280.970215,216.677734 
	C278.902527,218.257385 276.873383,219.617691 274.530579,221.082199 
	C274.168152,214.075485 274.119385,206.964554 274.436127,199.489929 
	C276.892700,204.756241 278.983734,210.386261 281.074768,216.016281 
z"/>
<path fill="#FEEC99" opacity="1.000000" stroke="none" 
	d="
M270.973267,380.487183 
	C267.619934,380.948425 264.287628,380.956879 260.501465,380.915344 
	C263.468781,377.354004 266.889984,373.842621 270.612030,370.211609 
	C270.940002,373.406128 270.967133,376.720245 270.973267,380.487183 
z"/>
<path fill="#FDD839" opacity="1.000000" stroke="none" 
	d="
M274.024475,230.487106 
	C272.154816,230.131027 270.270020,229.332932 268.133148,228.305237 
	C269.639618,226.402283 271.398163,224.728928 273.468384,222.966934 
	C273.856506,225.267227 273.932892,227.656143 274.024475,230.487106 
z"/>
<path fill="#FEF0B1" opacity="1.000000" stroke="none" 
	d="
M274.025391,182.990311 
	C271.189178,180.883423 268.352966,178.776520 264.608673,175.995056 
	C273.853729,166.787018 283.233398,157.444901 292.859192,147.830704 
	C301.420044,150.212433 308.402618,154.690323 312.844055,162.712387 
	C301.988617,173.838226 291.454132,184.459976 280.658936,194.839233 
	C278.273926,190.727951 276.149658,186.859131 274.025391,182.990311 
z"/>
<path fill="#F3A00B" opacity="1.000000" stroke="none" 
	d="
M248.832062,314.721405 
	C234.994263,309.309906 233.260727,297.041504 231.949661,283.846069 
	C226.217865,283.846069 220.629395,283.846069 214.585724,283.791260 
	C218.271576,278.592804 222.412643,273.449158 227.198380,268.201538 
	C234.769653,271.020386 241.696259,273.943207 248.721619,277.336395 
	C248.824280,290.111633 248.828171,302.416534 248.832062,314.721405 
z"/>
<path fill="#FEE269" opacity="1.000000" stroke="none" 
	d="
M280.919678,195.081711 
	C291.454132,184.459976 301.988617,173.838226 312.846313,163.077271 
	C315.758575,166.038269 318.347595,169.138474 320.825989,172.888092 
	C319.232788,175.083984 317.765381,176.645264 316.265259,178.174484 
	C306.803680,187.819519 297.334869,197.457474 287.452332,207.104767 
	C283.414124,207.651077 281.472931,206.185333 281.342041,202.433655 
	C281.256470,199.981094 281.064178,197.532227 280.919678,195.081711 
z"/>
<path fill="#E48E43" opacity="1.000000" stroke="none" 
	d="
M224.954865,251.006256 
	C228.847778,253.107819 232.740692,255.209381 236.570496,257.720886 
	C233.379761,261.092957 230.252136,264.055115 227.124512,267.017242 
	C209.207962,258.100159 195.928879,245.391891 193.034500,224.510025 
	C192.361908,219.657562 192.580399,214.681610 192.633942,209.455673 
	C194.289017,218.784470 197.338181,227.684677 204.738358,235.277832 
	C211.713608,240.844589 218.334229,245.925430 224.954865,251.006256 
z"/>
<path fill="#FEF1B2" opacity="1.000000" stroke="none" 
	d="
M287.868408,207.097748 
	C297.334869,197.457474 306.803680,187.819519 316.265259,178.174484 
	C317.765381,176.645264 319.232788,175.083984 320.872192,173.237213 
	C322.668335,176.704727 324.307648,180.472565 325.927979,184.624802 
	C319.327393,189.123596 312.632294,193.070160 306.206238,197.414642 
	C302.286865,200.064438 298.781677,203.326843 295.036682,206.656998 
	C293.970215,207.175659 292.957550,207.351425 291.189941,207.465164 
	C289.579468,207.301331 288.723938,207.199539 287.868408,207.097748 
z"/>
<path fill="#FEE269" opacity="1.000000" stroke="none" 
	d="
M184.869080,291.151215 
	C184.672165,290.191254 184.489838,289.227997 184.275803,288.271881 
	C183.390213,284.315582 185.041672,282.823822 188.976761,283.064148 
	C195.669113,283.472809 202.373718,283.680817 209.382751,284.280853 
	C202.411011,291.730377 195.129700,298.872223 187.619995,305.720032 
	C186.550766,300.667725 185.709915,295.909454 184.869080,291.151215 
z"/>
<path fill="#DC6905" opacity="1.000000" stroke="none" 
	d="
M227.122025,267.260468 
	C230.252136,264.055115 233.379761,261.092957 236.814240,257.961121 
	C237.121094,257.791443 237.570435,257.871643 237.797455,257.850342 
	C241.399643,259.491150 244.774811,261.153259 248.453308,263.462219 
	C248.712036,268.361420 248.667450,272.613708 248.622864,276.866028 
	C241.696259,273.943207 234.769653,271.020386 227.500748,268.043091 
	C227.158447,267.988617 227.119522,267.503693 227.122025,267.260468 
z"/>
<path fill="#FEEFB0" opacity="1.000000" stroke="none" 
	d="
M225.624588,147.933685 
	C216.529724,157.555923 207.058701,167.152954 197.273544,176.870361 
	C198.005630,174.278809 198.601547,171.265991 200.177307,168.907928 
	C206.460129,159.505875 214.354126,151.875885 225.624588,147.933685 
z"/>
<path fill="#FEF0B1" opacity="1.000000" stroke="none" 
	d="
M187.848389,306.014069 
	C195.129700,298.872223 202.411011,291.730377 209.851578,284.296722 
	C210.749054,283.992004 211.487259,283.979126 212.591034,284.016357 
	C205.547394,293.919342 198.138199,303.772217 190.268097,313.475525 
	C189.154266,310.888702 188.501343,308.451385 187.848389,306.014069 
z"/>
<path fill="#FEEEAE" opacity="1.000000" stroke="none" 
	d="
M262.501221,111.026382 
	C259.224457,114.881111 255.489059,118.713730 251.472504,122.671341 
	C251.178070,122.631783 251.157059,122.467453 251.152634,122.302681 
	C250.848770,110.938004 250.848892,110.938004 262.501221,111.026382 
z"/>
<path fill="#E79545" opacity="1.000000" stroke="none" 
	d="
M187.619995,305.720032 
	C188.501343,308.451385 189.154266,310.888702 189.991760,313.651489 
	C190.393021,314.487488 190.609695,314.998077 190.862274,315.786682 
	C189.810181,316.943146 188.722153,317.821564 187.372757,318.875732 
	C184.142960,310.164215 183.485046,301.046295 184.628525,291.461884 
	C185.709915,295.909454 186.550766,300.667725 187.619995,305.720032 
z"/>
<path fill="#FEEFB0" opacity="1.000000" stroke="none" 
	d="
M226.770523,147.027512 
	C226.824249,147.204453 226.631821,147.491699 226.201904,147.890854 
	C226.151077,147.714447 226.337723,147.426132 226.770523,147.027512 
z"/>
<path fill="#FEEFB0" opacity="1.000000" stroke="none" 
	d="
M196.705902,177.025909 
	C196.751816,177.254303 196.510880,177.543625 195.993637,177.929428 
	C195.951248,177.712891 196.185165,177.399872 196.705902,177.025909 
z"/>
<path fill="#FEF0B1" opacity="1.000000" stroke="none" 
	d="
M225.109497,250.708008 
	C218.334229,245.925430 211.713608,240.844589 205.041885,235.433731 
	C214.802216,225.465363 224.599869,215.812958 234.439423,206.203430 
	C235.964828,204.713684 237.681870,203.420151 239.689331,202.288696 
	C240.300919,203.102310 240.533478,203.663101 240.798782,204.601700 
	C242.040695,211.287155 245.256287,216.173172 250.970398,219.288864 
	C253.411636,221.337479 252.643936,222.942963 250.619537,224.937424 
	C242.085815,233.345062 233.702469,241.905334 225.109497,250.708008 
z"/>
<path fill="#F6B648" opacity="1.000000" stroke="none" 
	d="
M250.991806,218.794342 
	C245.256287,216.173172 242.040695,211.287155 241.079773,204.365036 
	C243.864685,199.823334 245.329910,194.841583 250.962631,193.961578 
	C250.979492,202.074326 250.996353,210.187057 250.991806,218.794342 
z"/>
<path fill="#E59044" opacity="1.000000" stroke="none" 
	d="
M287.452332,207.104767 
	C288.723938,207.199539 289.579468,207.301331 290.823792,207.586777 
	C288.024292,210.410110 284.835999,213.049820 281.361237,215.852905 
	C278.983734,210.386261 276.892700,204.756241 274.483643,199.017883 
	C274.109955,193.914810 274.054230,188.920090 274.011963,183.457840 
	C276.149658,186.859131 278.273926,190.727951 280.658936,194.839233 
	C281.064178,197.532227 281.256470,199.981094 281.342041,202.433655 
	C281.472931,206.185333 283.414124,207.651077 287.452332,207.104767 
z"/>
<path fill="#E59044" opacity="1.000000" stroke="none" 
	d="
M251.002563,193.500305 
	C245.329910,194.841583 243.864685,199.823334 241.047058,203.987228 
	C240.533478,203.663101 240.300919,203.102310 240.028900,202.228699 
	C241.193115,196.199341 241.974869,190.343399 243.796249,184.830978 
	C244.587921,182.434937 247.516754,180.745041 249.474915,178.734436 
	C249.997437,178.988007 250.519958,179.241562 251.042480,179.495117 
	C251.042480,184.009750 251.042480,188.524384 251.002563,193.500305 
z"/>
<path fill="#FDD836" opacity="1.000000" stroke="none" 
	d="
M248.721634,277.336395 
	C248.667450,272.613708 248.712036,268.361420 248.734619,263.660492 
	C256.323853,266.896851 263.935120,270.581818 271.457611,274.836426 
	C271.273560,279.927368 271.178253,284.448639 271.053284,289.439575 
	C271.019287,297.894012 271.014984,305.878754 271.010651,313.863495 
	C264.099854,318.359619 256.862579,317.399933 249.190002,314.934631 
	C248.828171,302.416534 248.824280,290.111633 248.721634,277.336395 
z"/>
<path fill="#F39F0B" opacity="1.000000" stroke="none" 
	d="
M271.335266,313.787476 
	C271.014984,305.878754 271.019287,297.894012 271.330658,289.619812 
	C274.378296,293.203461 277.118927,297.076569 279.859528,300.949646 
	C279.030334,306.426910 276.445343,310.776093 271.335266,313.787476 
z"/>
<path fill="#DC6A06" opacity="1.000000" stroke="none" 
	d="
M279.945374,300.554016 
	C277.118927,297.076569 274.378296,293.203461 271.360321,289.150146 
	C271.178253,284.448639 271.273560,279.927368 271.663300,275.088348 
	C280.110260,281.496460 281.071808,290.509064 279.945374,300.554016 
z"/>
<path fill="#FDE793" opacity="1.000000" stroke="none" 
	d="
M324.179535,317.078186 
	C319.086792,330.841034 309.192535,340.332275 295.355438,346.434021 
	C296.647400,344.534790 298.136261,342.339111 299.983521,340.504303 
	C307.871643,332.669373 315.865631,324.941040 324.179535,317.078186 
z"/>
</svg>